<?xml version="1.0" encoding="UTF-8" standalone="no"?>
<!-- Generator: Adobe Illustrator 25.4.1, SVG Export Plug-In . SVG Version: 6.00 Build 0)  -->

<svg
   version="1.1"
   id="Layer_1"
   x="0px"
   y="0px"
   viewBox="0 0 168.15473 128"
   xml:space="preserve"
   sodipodi:docname="GWJ-Full-Logo-noBG_128_Hover.svg"
   width="168.15472"
   height="128"
   inkscape:version="1.2.1 (9c6d41e410, 2022-07-14, custom)"
   xmlns:inkscape="http://www.inkscape.org/namespaces/inkscape"
   xmlns:sodipodi="http://sodipodi.sourceforge.net/DTD/sodipodi-0.dtd"
   xmlns="http://www.w3.org/2000/svg"
   xmlns:svg="http://www.w3.org/2000/svg"><defs
   id="defs35" /><sodipodi:namedview
   id="namedview33"
   pagecolor="#ffffff"
   bordercolor="#666666"
   borderopacity="1.0"
   inkscape:showpageshadow="2"
   inkscape:pageopacity="0.0"
   inkscape:pagecheckerboard="0"
   inkscape:deskcolor="#d1d1d1"
   showgrid="false"
   inkscape:zoom="1.0263363"
   inkscape:cx="156.38149"
   inkscape:cy="75.998482"
   inkscape:window-width="1920"
   inkscape:window-height="1053"
   inkscape:window-x="0"
   inkscape:window-y="0"
   inkscape:window-maximized="1"
   inkscape:current-layer="Layer_1" />
<style
   type="text/css"
   id="style2">
	.st0{fill:#F0624B;}
	.st1{fill:#F1634C;}
</style>
<path
   class="st0"
   d="m 120.12449,44.042705 c 0.89493,-1.887131 1.22463,-3.8337 0.80072,-5.096741 -0.42391,-1.26304 -0.87922,-1.872271 -0.64372,-2.852985 0.23551,-0.965855 3.86232,-1.961428 5.38527,-2.362629 2.46497,-0.63895 4.64734,-1.114448 6.57849,-1.233322 0.91063,-0.05944 1.16184,0.41606 0.58093,0.84698 -0.92633,0.683528 -2.9517,2.169458 -5.16546,3.551373 -3.34421,2.095161 -2.71618,4.873851 -7.53623,7.147324 z m -3.59541,-3.150172 c -0.25121,1.931709 -2.68478,5.79513 -2.68478,5.79513 0,0 -0.17271,-0.653812 -0.28261,-1.025296 -0.1099,-0.371483 -0.40821,-0.445778 -0.40821,-0.445778 0,0 -0.92633,3.432499 -2.05677,4.264619 -2.51208,1.827693 -4.09781,1.099589 -6.59419,6.25577 -0.51811,1.08472 -0.0785,3.373054 -0.45532,3.878275 0.18841,0.564651 0.39251,1.575088 0.0157,2.956999 -1.24034,-0.356625 -3.56401,-0.56465 -3.56401,-0.56465 0,0 1.77415,0.832119 2.90459,1.381916 -0.10991,0.564651 -1.77416,3.922851 -2.19807,4.264618 -1.868359,-0.668671 -4.144928,-1.08473 -4.144928,-1.08473 0,0 1.617148,0.965851 3.391298,1.931708 -0.2669,0.638953 -2.496374,3.209605 -3.030188,3.477074 -1.554349,-1.29276 -3.67391,-2.006006 -3.67391,-2.006006 0,0 1.114733,1.08473 3.124394,2.763832 -2.198067,1.604805 -4.882851,1.114443 -6.923912,0.713247 -0.219805,-0.0446 -0.926328,-1.352195 -0.926328,-1.352195 0,0 -0.596617,1.29276 -2.04106,0.356621 -0.910631,-0.594368 -1.758452,-1.723679 -1.711351,-2.89757 0.04711,-1.248169 1.067627,-2.867838 4.270523,-4.487501 1.931165,-0.995569 2.857488,-3.179893 2.716188,-5.720832 0.125608,-0.757822 0.737922,-4.75498 1.099032,-6.582669 0.455317,-2.258611 1.570051,-6.656966 3.626809,-9.36136 1.711355,-2.243755 4.207733,-3.313624 8.588163,-4.68068 4.88284,-1.530508 7.86594,-1.604805 10.44081,-1.857413 0.0157,-0.02972 0.84783,1.441352 0.51813,4.026871 z m -10.44082,3.982292 c 1.20894,-1.203602 1.64856,-2.704392 1.64856,-2.704392 0,0 -4.00363,0.802402 -5.65218,1.040151 -2.857489,0.41606 -3.187194,1.114447 -4.192028,2.392349 -0.785018,0.995574 -0.863528,1.723673 -0.565217,3.328483 0.09421,0.490353 0.439615,0.728105 0.753623,1.248179 0.345413,0.594373 0.423918,1.708825 0.628022,1.693957 0.314013,-0.02975 1.49154,-1.188745 2.82609,-1.530502 2.27656,-0.624095 2.81038,-3.744543 4.55313,-5.468225 z m -5.33815,5.245336 c -1.13044,0 -2.04107,-0.995578 -2.04107,-2.214041 0,-1.218457 0.942029,-1.976284 2.04107,-2.214031 2.04106,-0.430924 1.80555,0.83212 2.04106,2.214031 0.2041,1.203609 -0.91063,2.214041 -2.04106,2.214041 z m -0.21982,-1.634527 c 0,-0.08915 -0.0785,-0.163454 -0.1727,-0.163454 -0.0942,0 -0.17271,0.0743 -0.17271,0.163454 0,0.08916 0.0785,0.163454 0.17271,0.163454 0.0942,0 0.1727,-0.0743 0.1727,-0.163454 z m 0.76933,0.02975 c 0,-0.148591 -0.0942,-0.267469 -0.20411,-0.267469 -0.1099,0 -0.20411,0.118878 -0.20411,0.267469 0,0.148596 0.0942,0.267464 0.20411,0.267464 0.1099,0 0.20411,-0.133732 0.20411,-0.267464 z m 0,-0.772685 c 0,-0.31204 -0.21981,-0.579514 -0.48672,-0.579514 -0.2669,0 -0.48671,0.25261 -0.48671,0.579514 0,0.312045 0.21981,0.579514 0.48671,0.579514 0.26691,0 0.48672,-0.252611 0.48672,-0.579514 z M 48.232014,44.042705 c -0.894932,-1.887131 -1.224641,-3.8337 -0.800729,-5.096741 0.408215,-1.26304 0.879229,-1.872271 0.643722,-2.852985 -0.235507,-0.965855 -3.862317,-1.961428 -5.385263,-2.362629 -2.464976,-0.63895 -4.647342,-1.114448 -6.5785,-1.233322 -0.910628,-0.05944 -1.161835,0.41606 -0.580918,0.84698 0.926328,0.683528 2.95169,2.169458 5.165457,3.551373 3.344201,2.095161 2.716182,4.873851 7.536231,7.147324 z m 4.097825,-7.206761 c 2.559172,0.252607 5.55796,0.341764 10.440811,1.857412 4.380428,1.367056 6.876811,2.436925 8.588162,4.680681 2.07246,2.719249 3.171496,7.102745 3.626809,9.361361 0.376812,1.827689 0.973434,5.824842 1.099036,6.582669 -0.141309,2.555798 0.785018,4.740112 2.716179,5.720832 3.187203,1.634517 4.223426,3.25418 4.270527,4.487506 0.04711,1.173886 -0.80072,2.303192 -1.71135,2.897565 -1.444444,0.936134 -2.041066,-0.356621 -2.041066,-0.356621 0,0 -0.706517,1.307614 -0.926322,1.352194 -2.041061,0.401202 -4.741548,0.891559 -6.923913,-0.713246 2.009661,-1.679102 3.124395,-2.763832 3.124395,-2.763832 0,0 -2.103865,0.713246 -3.673911,2.006011 -0.533813,-0.267474 -2.76328,-2.838131 -3.030192,-3.477079 1.774155,-0.965857 3.391302,-1.931713 3.391302,-1.931713 0,0 -2.276573,0.416059 -4.14492,1.084735 -0.423914,-0.341767 -2.088167,-3.699968 -2.198068,-4.264623 1.130436,-0.549792 2.904585,-1.381911 2.904585,-1.381911 0,0 -2.323665,0.208025 -3.56401,0.56465 -0.376812,-1.381911 -0.188406,-2.392354 0.01574,-2.957004 -0.376811,-0.505216 0.0628,-2.79355 -0.455317,-3.878275 -2.496374,-5.156181 -4.082122,-4.428072 -6.594197,-6.255765 -1.130436,-0.832125 -2.056763,-4.264621 -2.056763,-4.264621 0,0 -0.298306,0.07429 -0.408212,0.44578 -0.109905,0.371479 -0.282613,1.025291 -0.282613,1.025291 0,0 -2.43357,-3.863418 -2.68477,-5.795127 -0.314018,-2.5558 0.518111,-4.02687 0.518111,-4.02687 z m 14.491534,13.492242 c 1.318841,0.356621 2.51208,1.500795 2.826088,1.530512 0.204103,0.01485 0.282604,-1.099589 0.628017,-1.693961 0.298311,-0.520075 0.659421,-0.757822 0.753619,-1.248179 0.298311,-1.604805 0.204113,-2.332915 -0.565213,-3.328484 -1.004829,-1.277902 -1.334544,-1.976289 -4.192027,-2.392349 -1.63285,-0.237749 -5.652173,-1.040151 -5.652173,-1.040151 0,0 0.439616,1.500789 1.648552,2.704392 1.74275,1.738541 2.276568,4.858989 4.553137,5.46822 z M 65.565335,47.90612 c 0.235507,-1.381911 0,-2.644955 2.041066,-2.214031 1.099026,0.237747 2.04106,0.995574 2.04106,2.214031 0,1.218467 -0.91063,2.214041 -2.04106,2.214041 -1.130441,0 -2.245174,-1.010432 -2.041066,-2.214041 z m 2.433575,0.742968 c 0.09421,0 0.172703,-0.0743 0.172703,-0.163454 0,-0.08915 -0.0785,-0.163454 -0.172703,-0.163454 -0.0942,0 -0.172709,0.0743 -0.172709,0.163454 0,0.08916 0.07851,0.163454 0.172709,0.163454 z m -0.737922,0.118874 c 0.109905,0 0.204103,-0.118874 0.204103,-0.267464 0,-0.148596 -0.0942,-0.267474 -0.204103,-0.267474 -0.10991,0 -0.204108,0.118878 -0.204108,0.267474 0,0.14859 0.0942,0.267464 0.204108,0.267464 z m 0.282609,-0.445782 c 0.266902,0 0.486712,-0.252605 0.486712,-0.579509 0,-0.312045 -0.21981,-0.579514 -0.486712,-0.579514 -0.266912,0 -0.486717,0.252611 -0.486717,0.579514 0,0.326904 0.219805,0.579509 0.486717,0.579509 z m 22.906991,11.27821 c -0.549515,-0.83212 -1.632849,-1.010428 -3.265699,-1.144165 -1.475843,-0.118873 -3.01449,-0.104015 -3.01449,-0.104015 0,0 -1.538646,0 -3.014494,0.104015 -1.617143,0.118879 -2.716179,0.312045 -3.2657,1.144165 -0.628011,0.950998 -0.910625,2.957004 2.653385,5.185898 0.172704,0.118879 0.282609,-0.35662 -0.251209,-0.846978 -0.847827,-0.77268 -1.287437,-3.269049 -0.753619,-3.135312 1.287437,0.341762 2.653375,2.511217 2.10386,4.116027 -0.1413,0.41606 0.894928,1.18874 1.35024,1.367048 0.722225,0.267474 1.161835,0.267474 1.161835,0.267474 0,0 0.439616,0 1.16184,-0.267474 0.455308,-0.163449 1.491545,-0.936134 1.350241,-1.367048 -0.549521,-1.619663 0.832119,-3.789123 2.103859,-4.116027 0.533819,-0.133737 0.0785,2.362632 -0.753623,3.135312 -0.533819,0.490358 -0.423914,0.950993 -0.2512,0.846978 3.5954,-2.214036 3.312796,-4.2349 2.684774,-5.185898 z M 131.31893,38.232718 c 0.2355,2.199177 -0.23551,4.309197 -0.67513,4.621243 -0.0157,-0.742965 -0.2198,-1.307619 -0.4553,-1.753398 -0.34542,-0.63895 -0.78503,-0.906418 -0.78503,-0.906418 0,0 0.47101,1.872273 -0.0628,7.50395 -0.34541,3.566231 -2.63768,7.147319 -2.63768,7.147319 0,0 0.0628,-1.456209 -0.54952,-3.239321 -0.50241,-1.500795 -1.69565,-2.481506 -1.69565,-2.481506 0,0 0.95773,3.120454 1.08333,4.472643 1.00483,10.059752 -7.33212,15.364519 -7.33212,15.364519 0,0 0.20411,-1.218462 -0.25121,-3.402776 -0.34541,-1.693961 -1.58575,-2.659817 -1.58575,-2.659817 0.62802,1.203603 1.02054,4.012017 0.1413,5.780266 -0.76932,1.530512 -1.78985,2.199177 -3.46979,3.789123 -1.86836,1.753401 -6.09179,3.417635 -6.09179,3.417635 0,0 0.25121,-2.288324 -0.0942,-2.734106 0.0314,0.460641 -1.11474,3.135312 -2.51208,3.774265 -1.28744,0.579514 -3.1558,1.901986 -4.03502,3.402776 0.157,-1.456209 0.29831,-2.763827 0.54952,-3.922855 -1.915463,2.570661 -4.977059,6.389502 -8.085747,8.291493 0.219805,-1.768259 0.690815,-2.778691 0,-4.056588 -0.392514,3.283903 -4.301932,6.448932 -4.301932,6.448932 0,0 0.832125,-3.566231 0.439606,-5.379065 -2.76328,7.177041 -4.741538,8.484659 -4.741538,8.484659 0,0 -1.978262,-1.307618 -4.741547,-8.484659 -0.408211,1.812834 0.439616,5.379065 0.439616,5.379065 0,0 -3.909413,-3.165029 -4.301932,-6.448932 -0.690815,1.263038 -0.219801,2.27347 0,4.056588 -3.108693,-1.901991 -6.185986,-5.720832 -8.085743,-8.291493 0.235503,1.159028 0.376817,2.466646 0.549516,3.922855 -0.894923,-1.50079 -2.747583,-2.823262 -4.035025,-3.402776 -1.397337,-0.638953 -2.543475,-3.313624 -2.512071,-3.774265 -0.32971,0.445782 -0.09421,2.734106 -0.09421,2.734106 0,0 -4.223426,-1.664234 -6.091783,-3.417635 -1.695648,-1.589946 -2.700481,-2.258611 -3.469802,-3.789123 -0.894928,-1.768249 -0.486717,-4.576663 0.141304,-5.780266 0,0 -1.24034,0.980715 -1.585745,2.659817 -0.439614,2.199178 -0.251209,3.402776 -0.251209,3.402776 0,0 -8.336954,-5.304767 -7.332123,-15.364519 0.141304,-1.337331 1.083333,-4.472647 1.083333,-4.472647 0,0 -1.177537,0.980715 -1.695652,2.48151 -0.612319,1.783112 -0.549517,3.239321 -0.549517,3.239321 0,0 -2.30797,-3.595952 -2.63768,-7.147319 -0.533816,-5.631677 -0.0628,-7.50395 -0.0628,-7.50395 0,0 -0.439614,0.267468 -0.785025,0.906418 -0.235507,0.445779 -0.439613,1.010433 -0.455313,1.753398 -0.439613,-0.312046 -0.910628,-2.422066 -0.675121,-4.621243 0.188406,-1.664241 0.753623,-1.976287 0.753623,-1.976287 0,0 2.778984,1.411634 4.160627,3.789121 2.731882,4.69554 6.892508,5.587098 8.070042,5.943724 0.141304,-1.010434 -1.868352,-4.294341 -1.413041,-6.612391 0.392513,-2.035725 1.695655,-2.13974 0.565217,-4.041731 -0.675122,-1.144166 -3.501203,-2.065443 -6.107485,-2.704393 -0.643719,-0.133733 -1.915458,-0.401201 -2.339371,-0.490356 -1.601448,-0.341764 -2.621979,-0.401202 -3.407003,-1.337337 -0.722222,-0.86184 -0.533816,-1.72368 -0.533816,-1.72368 0,0 1.585747,0.63895 3.218597,-0.371482 2.119565,-1.292759 -0.455313,-3.447358 3.171496,-6.523233 2.24517,-1.901991 5.181156,-1.500789 5.181156,-1.500789 0,0 -1.774154,-1.099589 -3.862315,-1.010433 -1.931159,0.08916 -3.391303,0.445779 -5.463766,2.823267 1.099033,-4.814413 3.579708,-6.523233 6.170285,-7.830851 2.402175,-1.218463 6.264491,-1.589945 8.870769,-1.381916 0,0 -0.973428,-1.233321 -2.716183,-1.768256 -2.386472,-0.728106 -3.940817,-0.534935 -5.134053,-0.133734 0.894926,-1.619664 4.082127,-3.105594 8.462556,-3.358202 5.181153,-0.297186 9.530186,1.426493 9.530186,1.426493 0,0 0.298311,-0.832121 -1.444444,-1.827694 -2.166663,-1.233322 -4.977045,-1.426493 -6.138884,-1.040151 0.76932,-0.921276 4.00362,-2.466644 9.8913,-1.604805 3.626809,0.534935 5.181153,1.144166 5.181153,1.144166 0,0 -0.0628,-0.965855 -0.910625,-1.604804 -0.816427,-0.609231 -1.852655,-0.891558 -2.747583,-1.040151 0.58092,-0.401201 3.940822,-0.728106 7.222223,-0.950996 4.129219,-0.282326 8.949267,-0.282326 8.949267,-0.282326 0,0 4.820048,0 8.949271,0.282326 3.265694,0.22289 6.625602,0.549795 7.222221,0.950996 -0.894931,0.133733 -1.931158,0.43092 -2.747585,1.040151 -0.863524,0.638949 -0.910631,1.604804 -0.910631,1.604804 0,0 1.570051,-0.62409 5.181166,-1.144166 5.87198,-0.861839 9.12197,0.668669 9.8913,1.604805 -1.17754,-0.386342 -3.97222,-0.193171 -6.13889,1.040151 -1.74276,0.995573 -1.44444,1.827694 -1.44444,1.827694 0,0 4.34903,-1.723679 9.53019,-1.426493 4.38043,0.252608 7.58333,1.738539 8.46255,3.358202 -1.20894,-0.401201 -2.76328,-0.609231 -5.13406,0.133734 -1.80555,0.549794 -2.77898,1.768256 -2.77898,1.768256 2.60628,-0.208029 6.4686,0.163453 8.87077,1.381916 2.57488,1.307618 5.05555,3.016438 6.17029,7.830851 -2.07247,-2.377488 -3.53261,-2.748971 -5.46377,-2.823267 -2.08816,-0.08916 -3.86232,1.010433 -3.86232,1.010433 0,0 2.936,-0.401202 5.18116,1.500789 3.62681,3.075875 1.06763,5.230474 3.1715,6.523233 1.64855,0.995573 3.2186,0.371482 3.2186,0.371482 0,0 0.1884,0.86184 -0.53382,1.72368 -0.78502,0.950995 -1.80556,0.995573 -3.407,1.337337 -0.40821,0.08915 -1.69565,0.356623 -2.33937,0.490356 -2.60628,0.624091 -5.41667,1.545368 -6.10749,2.704393 -1.13043,1.91685 0.17271,2.006006 0.56522,4.041731 0.43961,2.31805 -1.57005,5.601957 -1.41305,6.612391 1.17754,-0.356626 5.33816,-1.248184 8.07004,-5.943724 1.38165,-2.377487 4.16064,-3.789121 4.16064,-3.789121 0,0 0.58092,0.312046 0.75362,1.976287 z M 90.670399,25.260548 h 0.1099 c 0.376812,-1.500789 0.69082,-2.97186 1.036237,-4.44293 0.361105,-1.456213 0.58091,-2.957002 1.067627,-4.383495 0.439611,-1.426492 1.146133,-2.778689 2.025364,-4.02687 0.879221,-1.248181 1.915458,-2.422066 3.12439,-3.417639 l -0.0628,-0.0743 c -1.318841,0.906418 -2.464974,1.991146 -3.485504,3.209609 -0.989136,1.218463 -1.821261,2.600378 -2.386474,4.056589 -0.580915,1.441352 -1.083334,2.927282 -1.303139,4.457791 -0.235507,1.530508 -0.32971,3.075875 -0.125602,4.621242 z m -3.140097,21.501408 0.109905,0.01485 c 0.675118,-2.823263 1.460141,-5.601953 2.40217,-8.321205 0.94203,-2.719252 1.946858,-5.423645 3.3442,-7.964585 1.413045,-2.511222 3.312801,-4.784696 5.44807,-6.80556 2.135263,-2.035724 4.506033,-3.878278 7.080913,-5.423645 l -0.0471,-0.08916 c -2.65338,1.441353 -5.11834,3.19475 -7.394918,5.156178 -2.245173,1.976287 -4.25483,4.2349 -5.824881,6.775841 -1.522944,2.54094 -2.778982,5.245333 -3.611107,8.053741 -0.408211,1.411633 -0.769321,2.823267 -1.02053,4.264619 -0.251205,1.441352 -0.439616,2.882706 -0.486717,4.338918 z M 70.353979,9.004473 c 1.208936,0.995574 2.245168,2.169458 3.124394,3.417639 0.879222,1.248181 1.570051,2.600378 2.025359,4.026871 0.471015,1.426493 0.706532,2.912422 1.067632,4.383494 0.345417,1.47107 0.659421,2.942141 1.036233,4.442931 h 0.109905 c 0.188406,-1.545368 0.09421,-3.090735 -0.109905,-4.621244 -0.219801,-1.530507 -0.72222,-3.016437 -1.303135,-4.457789 -0.565222,-1.456212 -1.397347,-2.838127 -2.386473,-4.05659 -1.02053,-1.203603 -2.166668,-2.303192 -3.485505,-3.209609 z m -7.913039,9.242485 c 2.574874,1.545368 4.945645,3.387921 7.080919,5.423645 2.150966,2.020865 4.035015,4.309198 5.44806,6.80556 1.381645,2.54094 2.402175,5.245333 3.3442,7.964586 0.942029,2.719251 1.727052,5.49794 2.402175,8.321207 l 0.109905,-0.01485 c -0.04711,-1.456209 -0.235507,-2.89756 -0.502419,-4.338911 -0.251204,-1.441352 -0.612314,-2.852986 -1.020525,-4.26462 -0.83213,-2.808408 -2.088163,-5.512801 -3.611117,-8.053741 -1.570046,-2.540941 -3.579707,-4.799555 -5.824876,-6.775841 -2.260861,-1.961428 -4.725845,-3.714825 -7.394923,-5.156178 z m -11.225839,7.474229 c 1.96256,0.430919 3.862316,1.069869 5.589368,1.991146 1.758448,0.891558 3.218598,2.184317 4.710139,3.432498 1.49155,1.263041 2.904594,2.615238 4.333336,3.997152 l 0.0785,-0.05944 c -0.486716,-0.861839 -1.051929,-1.6791 -1.679951,-2.451785 -0.612319,-0.772683 -1.303139,-1.515648 -2.025358,-2.214036 -1.444449,-1.396774 -3.187199,-2.54094 -5.055556,-3.40278 -1.852655,-0.876698 -3.862316,-1.441351 -5.871978,-1.783115 -2.025357,-0.312046 -4.08212,-0.416061 -6.123181,-0.208031 l 0.01572,0.104015 c 2.041065,-0.05944 4.082127,0.178312 6.028988,0.594373 z m 36.896116,51.457758 c -0.675123,0.178313 -1.318837,0.178313 -1.978258,0.222888 -0.65942,0.01485 -1.303139,0.01485 -1.96256,0 0,0 0,0 0,0 0,0 0,0 0,0 -0.65942,0 -1.303139,0.01485 -1.96256,0 -0.65942,-0.02975 -1.303139,-0.02975 -1.978262,-0.222888 0.21981,0.282328 0.533819,0.46064 0.847832,0.609231 0.329705,0.148596 0.659421,0.267474 1.004828,0.341767 0.690815,0.178308 1.381645,0.237747 2.088162,0.252606 0,0 0,0 0,0 0,0 0,0 0,0 0.690816,0 1.397348,-0.0743 2.088163,-0.252606 0.345412,-0.07429 0.675123,-0.208035 1.004828,-0.341767 0.314013,-0.148591 0.628026,-0.326903 0.847827,-0.609231 z M 117.0315,35.706637 c -2.93599,0.04458 -4.56884,0.19317 -7.63043,0.728105 -4.55314,0.802403 -6.3587,1.589946 -9.734304,3.016439 -3.187198,1.352196 -5.259658,3.774262 -6.201688,7.325634 -0.172699,0.624094 -0.345407,1.322477 -0.518111,2.080303 0,0.01485 0,0.02975 -0.01574,0.0446 -0.03137,0.163454 -0.07851,0.31205 -0.109905,0.475499 -0.01574,0.0446 -0.01574,0.0743 -0.03137,0.118878 -0.03137,0.148591 -0.0628,0.297187 -0.0942,0.445772 0,0.02975 -0.01569,0.05944 -0.01569,0.08916 -0.04711,0.178317 -0.07851,0.35662 -0.125607,0.549796 0,0.01485 -0.01574,0.0446 -0.01574,0.05944 -0.03137,0.163449 -0.0785,0.326903 -0.1099,0.505216 -0.785028,3.595952 -1.460146,7.251334 -1.460146,7.251334 0,0 -0.329715,-0.386338 -0.879231,-0.549792 0.518121,-3.373059 -0.1099,-5.958574 -0.1099,-5.958574 0,0 -0.455313,5.245328 -0.80072,5.750544 -0.628026,-0.104015 -0.973434,-0.0743 -1.585753,-0.118874 -0.690815,-0.0446 -1.130436,-0.0446 -1.727053,-0.07429 0.07851,-0.802408 -0.2512,-1.411639 -0.2512,-1.411639 0,0 -0.266916,1.396775 -0.376816,1.411639 -0.518121,0.01485 -1.067632,-0.01485 -1.067632,-0.01485 v 0 c 0,0 -0.549521,0.01485 -1.067632,0.01485 -0.10991,0 -0.376812,-1.411639 -0.376812,-1.411639 0,0 -0.345412,0.609231 -0.251209,1.411639 -0.596618,0.02975 -1.036228,0.02975 -1.727053,0.07429 -0.612319,0.0446 -0.94203,0 -1.585743,0.118874 -0.345413,-0.505216 -0.80073,-5.750544 -0.80073,-5.750544 0,0 -0.628017,2.570656 -0.109901,5.958574 -0.54952,0.178318 -0.879225,0.549792 -0.879225,0.549792 0,0 -0.675123,-3.640528 -1.460146,-7.251334 -0.03137,-0.163449 -0.07851,-0.326909 -0.109905,-0.505216 0,-0.01485 -0.01574,-0.0446 -0.01574,-0.05944 -0.04711,-0.178307 -0.07851,-0.356625 -0.125602,-0.549796 0,-0.0297 -0.01574,-0.05944 -0.01574,-0.08916 -0.03137,-0.14859 -0.0628,-0.297181 -0.0942,-0.445772 -0.01574,-0.0446 -0.01574,-0.0743 -0.03137,-0.118878 -0.03137,-0.163449 -0.0785,-0.326904 -0.1099,-0.475499 0,-0.01485 0,-0.02975 -0.01569,-0.0446 -0.172704,-0.742963 -0.345408,-1.441355 -0.518116,-2.080303 -0.94203,-3.551372 -3.01449,-5.973438 -6.201694,-7.325634 -3.375599,-1.426493 -5.181152,-2.228895 -9.734289,-3.016439 -3.077293,-0.534935 -4.694441,-0.683527 -7.630435,-0.728105 -1.632846,3.848559 -0.753617,7.533665 1.899757,11.322788 1.13044,1.619663 1.49155,3.135312 2.935994,4.65096 0.282608,0.297187 2.920291,1.04015 3.438403,1.485932 0.518116,0.445777 3.312795,6.835279 3.09299,8.885861 0.07851,0.282327 0.157007,0.579513 0.251215,0.891553 -0.722225,0.193177 -2.166673,0.594373 -3.595415,1.040155 -3.438403,1.08473 -6.751204,2.644954 -6.594197,2.674676 0,0 4.019318,-1.069871 6.405791,-1.768259 1.821261,-0.534933 3.297104,-0.846978 4.082127,-0.980715 0.455312,1.381911 1.067632,2.942145 1.868352,4.39836 -0.345408,0.133727 -0.769326,0.297181 -1.303134,0.520069 -2.323675,0.965857 -5.652173,3.120459 -5.652173,3.120459 0,0 2.747583,-1.025296 5.981883,-2.095163 0.628016,-0.208035 1.146138,-0.371489 1.585748,-0.505221 0.392509,0.609231 0.816422,1.18875 1.287442,1.70882 0.455308,0.505216 1.114729,1.307618 2.056758,2.184319 -0.266907,0.163454 -0.533818,0.341762 -0.722224,0.475494 -0.753624,0.549797 -3.061586,2.615242 -3.061586,2.615242 0,0 2.339366,-1.218467 3.23429,-1.723679 0.439615,-0.25261 0.879235,-0.520074 1.256042,-0.757831 1.020526,0.846983 2.323665,1.708824 4.003621,2.392353 2.135264,0.876701 3.658208,-0.594372 5.573667,-1.29276 2.009661,-0.728104 3.579712,-1.277896 3.579712,-1.277896 l 1.224634,-0.118879 1.224643,0.118879 c 0,0 1.554339,0.534928 3.579703,1.277896 1.915458,0.698388 3.438408,2.184314 5.573672,1.29276 1.679951,-0.698387 2.98309,-1.560229 4.003621,-2.392353 0.376806,0.237757 0.80072,0.490362 1.256037,0.757831 0.879225,0.520075 3.234295,1.723679 3.234295,1.723679 0,0 -2.30797,-2.065445 -3.061591,-2.615242 -0.188406,-0.133732 -0.455313,-0.31204 -0.722224,-0.475494 0.942035,-0.876701 1.601445,-1.679103 2.056755,-2.184319 0.47101,-0.505216 0.89493,-1.08473 1.28745,-1.70882 0.43961,0.133732 0.95772,0.297186 1.58574,0.505221 3.2343,1.069867 5.98189,2.095163 5.98189,2.095163 0,0 -3.3285,-2.154602 -5.65217,-3.120459 -0.53382,-0.222888 -0.95774,-0.386342 -1.30314,-0.520069 0.78501,-1.456215 1.41304,-3.016449 1.86835,-4.39836 0.78503,0.148591 2.26087,0.445782 4.08212,0.980715 2.38648,0.698388 6.4058,1.768259 6.4058,1.768259 0.157,-0.02975 -3.1558,-1.589946 -6.5942,-2.674676 -1.42874,-0.460636 -2.87319,-0.846978 -3.59541,-1.040155 0.0942,-0.31204 0.17271,-0.624089 0.25121,-0.891553 -0.21981,-2.050582 2.59058,-8.454948 3.09299,-8.885861 0.51812,-0.445782 3.1558,-1.188745 3.4384,-1.485932 1.44445,-1.530507 1.80556,-3.046155 2.936,-4.65096 2.71618,-3.803982 3.5954,-7.474229 1.96256,-11.322788 z m 6.10748,-10.564964 0.0157,-0.104014 c -2.04106,-0.193172 -4.09783,-0.08916 -6.12318,0.20803 -2.02537,0.341763 -4.01933,0.906417 -5.87199,1.783116 -1.86835,0.861839 -3.6111,2.006006 -5.05555,3.40278 -0.72222,0.698387 -1.39734,1.426493 -2.02536,2.214036 -0.62802,0.772684 -1.19323,1.589945 -1.67995,2.451784 l 0.0785,0.05944 c 1.42874,-1.381915 2.84179,-2.734112 4.33334,-3.997152 1.49154,-1.248181 2.96738,-2.540941 4.71014,-3.432499 1.72705,-0.936136 3.64251,-1.575086 5.58937,-1.991146 1.97825,-0.43092 4.01932,-0.668669 6.02898,-0.594373 z"
   id="path4"
   style="stroke:none;stroke-width:0.493313;stroke-dasharray:none;stroke-opacity:1" />
<g
   id="g30"
   transform="matrix(0.15700476,0,0,0.14859301,-0.53366761,3.1141157)"
   style="stroke:none;stroke-width:3.22973;stroke-dasharray:none;stroke-opacity:1">
	<path
   class="st1"
   d="m 55.5,789.8 c -8.5,0 -15.2,-1.8 -20.1,-5.3 -4.9,-3.5 -8.5,-8.6 -10.6,-15.2 -2.1,-6.6 -3.2,-14.2 -3.2,-22.9 v -42 c 0,-9 1.1,-16.7 3.3,-23.2 2.2,-6.5 6,-11.5 11.4,-15 5.4,-3.5 12.8,-5.3 22.1,-5.3 9,0 16.1,1.5 21.3,4.5 5.2,3 9,7.2 11.2,12.7 2.3,5.5 3.4,12 3.4,19.5 v 7.3 h -25 v -8.8 c 0,-3.3 -0.2,-6.2 -0.6,-8.8 -0.4,-2.5 -1.4,-4.5 -2.9,-6 -1.5,-1.4 -3.9,-2.2 -7.2,-2.2 -3.4,0 -5.9,0.9 -7.4,2.6 -1.5,1.8 -2.5,4 -2.9,6.7 -0.4,2.7 -0.6,5.7 -0.6,8.8 V 753 c 0,3.5 0.3,6.7 0.9,9.5 0.6,2.8 1.8,5 3.5,6.5 1.7,1.6 4.2,2.3 7.4,2.3 3.2,0 5.7,-0.8 7.4,-2.5 1.8,-1.7 3,-3.9 3.6,-6.7 0.7,-2.8 1,-6.1 1,-9.7 V 739 H 59.2 V 723.5 H 94.5 V 788 H 77.8 l -1.6,-11.3 c -1.7,3.8 -4.1,7 -7.4,9.5 -3.3,2.4 -7.7,3.6 -13.3,3.6 z"
   id="path6"
   style="stroke:none;stroke-width:3.22973;stroke-dasharray:none;stroke-opacity:1" />
	<path
   class="st1"
   d="m 147.1,789.7 c -9.2,0 -16.5,-1.7 -21.9,-5 -5.4,-3.3 -9.2,-8 -11.5,-14.2 -2.3,-6.1 -3.5,-13.5 -3.5,-22.1 v -46.8 c 0,-8.6 1.2,-15.9 3.5,-22 2.3,-6.1 6.2,-10.7 11.5,-13.9 5.4,-3.2 12.7,-4.8 21.9,-4.8 9.3,0 16.7,1.6 22.1,4.9 5.4,3.3 9.3,7.9 11.6,13.9 2.3,6 3.5,13.4 3.5,21.9 v 46.8 c 0,8.6 -1.2,15.9 -3.5,22.1 -2.3,6.1 -6.2,10.9 -11.6,14.2 -5.4,3.3 -12.8,5 -22.1,5 z m 0,-18.5 c 3.3,0 5.7,-0.7 7.3,-2.2 1.6,-1.5 2.6,-3.5 3.1,-6 0.5,-2.5 0.8,-5.2 0.8,-8.1 v -59.4 c 0,-2.9 -0.3,-5.6 -0.8,-8.1 -0.5,-2.5 -1.5,-4.5 -3.1,-6 -1.6,-1.5 -4,-2.2 -7.3,-2.2 -3.1,0 -5.4,0.8 -7,2.2 -1.5,1.5 -2.6,3.5 -3.1,6 -0.5,2.5 -0.8,5.2 -0.8,8.1 v 59.4 c 0,2.9 0.2,5.6 0.7,8.1 0.5,2.5 1.5,4.5 3,6 1.6,1.5 4,2.2 7.2,2.2 z"
   id="path8"
   style="stroke:none;stroke-width:3.22973;stroke-dasharray:none;stroke-opacity:1" />
	<path
   class="st1"
   d="M 201.3,788 V 662.4 H 232 c 10.6,0 18.9,1.4 24.9,4.1 5.9,2.7 10.2,7 12.6,12.9 2.5,5.8 3.7,13.3 3.7,22.4 v 45.7 c 0,9.3 -1.2,16.9 -3.7,22.9 -2.5,6 -6.6,10.4 -12.5,13.3 -5.8,2.8 -14,4.3 -24.4,4.3 z m 25.6,-17.8 h 5.4 c 4.7,0 8.1,-0.7 10.2,-2.2 2,-1.5 3.3,-3.7 3.8,-6.7 0.5,-2.9 0.8,-6.6 0.8,-10.9 v -51.8 c 0,-4.3 -0.3,-7.8 -1,-10.5 -0.7,-2.6 -2,-4.6 -4,-5.8 -2,-1.2 -5.3,-1.9 -9.8,-1.9 H 227 v 89.8 z"
   id="path10"
   style="stroke:none;stroke-width:3.22973;stroke-dasharray:none;stroke-opacity:1" />
	<path
   class="st1"
   d="m 325.1,789.7 c -9.2,0 -16.5,-1.7 -21.9,-5 -5.4,-3.3 -9.2,-8 -11.5,-14.2 -2.3,-6.1 -3.5,-13.5 -3.5,-22.1 v -46.8 c 0,-8.6 1.2,-15.9 3.5,-22 2.3,-6.1 6.2,-10.7 11.5,-13.9 5.4,-3.2 12.7,-4.8 21.9,-4.8 9.3,0 16.7,1.6 22.1,4.9 5.4,3.3 9.3,7.9 11.6,13.9 2.3,6 3.5,13.4 3.5,21.9 v 46.8 c 0,8.6 -1.2,15.9 -3.5,22.1 -2.3,6.1 -6.2,10.9 -11.6,14.2 -5.4,3.3 -12.8,5 -22.1,5 z m 0,-18.5 c 3.3,0 5.7,-0.7 7.3,-2.2 1.6,-1.5 2.6,-3.5 3.1,-6 0.5,-2.5 0.8,-5.2 0.8,-8.1 v -59.4 c 0,-2.9 -0.3,-5.6 -0.8,-8.1 -0.5,-2.5 -1.5,-4.5 -3.1,-6 -1.6,-1.5 -4,-2.2 -7.3,-2.2 -3.1,0 -5.4,0.8 -7,2.2 -1.5,1.5 -2.6,3.5 -3.1,6 -0.5,2.5 -0.8,5.2 -0.8,8.1 v 59.4 c 0,2.9 0.2,5.6 0.7,8.1 0.5,2.5 1.5,4.5 3,6 1.7,1.5 4,2.2 7.2,2.2 z"
   id="path12"
   style="stroke:none;stroke-width:3.22973;stroke-dasharray:none;stroke-opacity:1" />
	<path
   class="st1"
   d="M 390.2,788 V 681.5 H 370.8 V 662.4 H 435 v 19.1 H 416 V 788 Z"
   id="path14"
   style="stroke:none;stroke-width:3.22973;stroke-dasharray:none;stroke-opacity:1" />
	<path
   class="st1"
   d="M 496.4,788 480.1,662.5 h 21.7 l 8.7,76.7 11,-76.6 h 17.2 l 11.5,76.4 8.7,-76.6 h 21.4 L 564.1,788 H 542.4 L 530.2,708.5 518.5,788 Z"
   id="path16"
   style="stroke:none;stroke-width:3.22973;stroke-dasharray:none;stroke-opacity:1" />
	<path
   class="st1"
   d="M 594,788 V 662.4 h 25.4 V 788 Z"
   id="path18"
   style="stroke:none;stroke-width:3.22973;stroke-dasharray:none;stroke-opacity:1" />
	<path
   class="st1"
   d="M 638.7,788 V 662.4 h 25.6 v 108.2 h 29.4 V 788 Z"
   id="path20"
   style="stroke:none;stroke-width:3.22973;stroke-dasharray:none;stroke-opacity:1" />
	<path
   class="st1"
   d="M 704.8,788 V 662.4 h 30.7 c 10.6,0 18.9,1.4 24.9,4.1 5.9,2.7 10.2,7 12.6,12.9 2.5,5.8 3.7,13.3 3.7,22.4 v 45.7 c 0,9.3 -1.2,16.9 -3.7,22.9 -2.5,6 -6.6,10.4 -12.5,13.3 -5.8,2.8 -14,4.3 -24.4,4.3 z m 25.6,-17.8 h 5.4 c 4.7,0 8.1,-0.7 10.2,-2.2 2,-1.5 3.3,-3.7 3.8,-6.7 0.5,-2.9 0.8,-6.6 0.8,-10.9 v -51.8 c 0,-4.3 -0.3,-7.8 -1,-10.5 -0.7,-2.6 -2,-4.6 -4,-5.8 -2,-1.2 -5.3,-1.9 -9.8,-1.9 h -5.3 v 89.8 z"
   id="path22"
   style="stroke:none;stroke-width:3.22973;stroke-dasharray:none;stroke-opacity:1" />
	<path
   class="st1"
   d="m 824.8,791.2 v -18 c 3,0 5.5,-0.2 7.6,-0.5 2.1,-0.4 3.7,-1 4.8,-2 1.1,-1 2,-2.4 2.5,-4.3 0.5,-1.9 0.8,-4.3 0.8,-7.3 V 662.4 H 866 v 97.8 c 0,6.9 -0.8,12.7 -2.5,17.3 -1.7,4.6 -4.6,8 -8.8,10.3 -4.2,2.3 -10,3.4 -17.6,3.4 z"
   id="path24"
   style="stroke:none;stroke-width:3.22973;stroke-dasharray:none;stroke-opacity:1" />
	<path
   class="st1"
   d="M 878.7,788 903,662.4 h 28.4 L 955.6,788 h -23.7 l -4.5,-27.6 h -19.8 l -4.8,27.6 z m 31.2,-43.3 h 15 L 917.3,694 Z"
   id="path26"
   style="stroke:none;stroke-width:3.22973;stroke-dasharray:none;stroke-opacity:1" />
	<path
   class="st1"
   d="M 967.8,788 970,662.5 h 27.1 l 15.5,79.2 16.6,-79.2 h 26.2 l 2.2,125.5 H 1039 l -2,-85.1 -16,85.1 h -16 l -16.7,-85.7 -1.7,85.7 z"
   id="path28"
   style="stroke:none;stroke-width:3.22973;stroke-dasharray:none;stroke-opacity:1" />
</g>
</svg>
