<?xml version="1.0" encoding="UTF-8" standalone="no"?>
<!-- Created with Inkscape (http://www.inkscape.org/) -->

<svg
   width="540"
   height="540"
   viewBox="0 0 142.875 142.875"
   version="1.1"
   id="svg7374"
   xml:space="preserve"
   inkscape:version="1.2.1 (9c6d41e410, 2022-07-14, custom)"
   sodipodi:docname="Vehicle_Lighting.svg"
   inkscape:export-filename="Headlights_Lights.png"
   inkscape:export-xdpi="96"
   inkscape:export-ydpi="96"
   xmlns:inkscape="http://www.inkscape.org/namespaces/inkscape"
   xmlns:sodipodi="http://sodipodi.sourceforge.net/DTD/sodipodi-0.dtd"
   xmlns:xlink="http://www.w3.org/1999/xlink"
   xmlns="http://www.w3.org/2000/svg"
   xmlns:svg="http://www.w3.org/2000/svg"><sodipodi:namedview
     id="namedview7376"
     pagecolor="#505050"
     bordercolor="#eeeeee"
     borderopacity="1"
     inkscape:showpageshadow="0"
     inkscape:pageopacity="0"
     inkscape:pagecheckerboard="0"
     inkscape:deskcolor="#505050"
     inkscape:document-units="px"
     showgrid="false"
     inkscape:zoom="1.1300912"
     inkscape:cx="222.10598"
     inkscape:cy="304.40022"
     inkscape:window-width="1920"
     inkscape:window-height="1053"
     inkscape:window-x="0"
     inkscape:window-y="0"
     inkscape:window-maximized="1"
     inkscape:current-layer="layer1" /><defs
     id="defs7371"><linearGradient
       inkscape:collect="always"
       id="linearGradient12186"><stop
         style="stop-color:#e9ddaf;stop-opacity:1;"
         offset="0"
         id="stop12182" /><stop
         style="stop-color:#b6ab73;stop-opacity:1;"
         offset="0.49833223"
         id="stop12190" /><stop
         style="stop-color:#e9ddaf;stop-opacity:1;"
         offset="1"
         id="stop12184" /></linearGradient><filter
       inkscape:collect="always"
       style="color-interpolation-filters:sRGB"
       id="filter11321"
       x="-0.049952904"
       y="-0.04619405"
       width="1.0999058"
       height="1.0923881"><feGaussianBlur
         inkscape:collect="always"
         stdDeviation="0.033212411"
         id="feGaussianBlur11323" /></filter><linearGradient
       inkscape:collect="always"
       xlink:href="#linearGradient12186"
       id="linearGradient12188"
       x1="4.0477114"
       y1="32.689224"
       x2="4.9583583"
       y2="32.689224"
       gradientUnits="userSpaceOnUse" /><linearGradient
       inkscape:collect="always"
       xlink:href="#linearGradient12186"
       id="linearGradient12194"
       gradientUnits="userSpaceOnUse"
       x1="4.0477114"
       y1="32.689224"
       x2="4.9583583"
       y2="32.689224"
       gradientTransform="translate(7.9889529)" /><filter
       inkscape:collect="always"
       style="color-interpolation-filters:sRGB"
       id="filter1849"
       x="-0.054140608"
       y="-0.04311043"
       width="1.1082812"
       height="1.0862209"><feGaussianBlur
         inkscape:collect="always"
         stdDeviation="1.9632484"
         id="feGaussianBlur1851" /></filter><filter
       inkscape:collect="always"
       style="color-interpolation-filters:sRGB"
       id="filter1863"
       x="-0.05436529"
       y="-0.042969026"
       width="1.1087306"
       height="1.0859381"><feGaussianBlur
         inkscape:collect="always"
         stdDeviation="1.8021255"
         id="feGaussianBlur1865" /></filter><filter
       inkscape:collect="always"
       style="color-interpolation-filters:sRGB"
       id="filter1879"
       x="-0.054676155"
       y="-0.042776802"
       width="1.1093523"
       height="1.0855536"><feGaussianBlur
         inkscape:collect="always"
         stdDeviation="1.6114057"
         id="feGaussianBlur1881" /></filter><filter
       inkscape:collect="always"
       style="color-interpolation-filters:sRGB"
       id="filter1897"
       x="-0.055400733"
       y="-0.042343516"
       width="1.1108015"
       height="1.084687"><feGaussianBlur
         inkscape:collect="always"
         stdDeviation="1.3632422"
         id="feGaussianBlur1899" /></filter><filter
       inkscape:collect="always"
       style="color-interpolation-filters:sRGB"
       id="filter1901"
       x="-0.056575291"
       y="-0.041682113"
       width="1.1131506"
       height="1.0833642"><feGaussianBlur
         inkscape:collect="always"
         stdDeviation="1.1044337"
         id="feGaussianBlur1903" /></filter><filter
       inkscape:collect="always"
       style="color-interpolation-filters:sRGB"
       id="filter3050"
       x="-0.37284392"
       y="-0.20521726"
       width="1.7456878"
       height="1.4104345"><feGaussianBlur
         inkscape:collect="always"
         stdDeviation="4.1542553"
         id="feGaussianBlur3052" /></filter></defs><g
     inkscape:groupmode="layer"
     id="layer2"
     inkscape:label="Vehicle"
     style="display:none"
     transform="translate(65.612016,108.33912)"
     sodipodi:insensitive="true"><rect
       style="fill:url(#linearGradient12188);fill-opacity:1;stroke:none;stroke-width:0.264583;stroke-linecap:round;stroke-linejoin:round;paint-order:stroke markers fill"
       id="rect12105"
       width="0.91064686"
       height="0.9589324"
       x="4.0477114"
       y="32.209759" /><rect
       style="fill:url(#linearGradient12194);fill-opacity:1;stroke:none;stroke-width:0.264583;stroke-linecap:round;stroke-linejoin:round;paint-order:stroke markers fill"
       id="rect12192"
       width="0.91064686"
       height="0.9589324"
       x="12.036664"
       y="32.209759" /><path
       id="rect8758"
       style="fill:#ffd42a;fill-opacity:1;stroke-width:0.264583;stroke-linecap:round;stroke-linejoin:round;paint-order:stroke markers fill"
       d="m 8.4666665,0.66920979 -2.9910318,0.006718 C 2.6554522,0.75703239 0.41222111,4.0822292 0.42943114,4.5273721 l 0.007235,5.4539306 c 0.0108872,0.6154613 0.10597448,1.2163463 0.96479896,1.9507853 l 0.010852,3.95118 c -0.83126913,0.569924 -1.19851691,1.224578 -1.40766602,1.908411 l 1.41231682,-0.0894 0.013953,5.180563 c -0.7925317,0.564661 -0.96285966,0.97617 -0.97410075,1.480013 l 0.008268,5.816699 c 0.0588962,1.840699 2.14049535,2.464867 3.95066325,2.494938 0.2832361,0.0015 0.5354009,-0.123481 0.7203694,-0.278536 l 3.3362304,-0.0155 h 0.045992 l 3.3357138,0.0155 c 0.184968,0.155055 0.437133,0.280086 0.720369,0.278536 1.810168,-0.03007 3.892284,-0.654239 3.95118,-2.494938 l 0.0078,-5.816699 c -0.01124,-0.503842 -0.181052,-0.915352 -0.973584,-1.480013 l 0.01344,-5.180563 1.412834,0.0894 c -0.20915,-0.683833 -0.576397,-1.338487 -1.407666,-1.908411 l 0.01033,-3.95118 c 0.858824,-0.734439 0.953911,-1.335324 0.964799,-1.9507853 l 0.0078,-5.4539306 c 0.01711,-0.4451429 -2.226118,-3.77033971 -5.0463,-3.85144438 l -2.9915484,-0.006718 z" /><path
       id="rect7554"
       style="fill:#28220b;stroke:none;stroke-width:0.303955;stroke-linecap:round;stroke-linejoin:round;paint-order:stroke markers fill"
       d="m 2.6886967,12.130886 c 3.5941216,-0.96286 8.1441593,-1.050391 11.5442213,0.0086 l -0.72685,6.025341 C 10.357249,16.753211 6.8326896,16.901985 3.4302179,18.208834 Z"
       sodipodi:nodetypes="ccccc" /><path
       id="rect8024"
       style="fill:#28220b;stroke-width:0.264583;stroke-linecap:round;stroke-linejoin:round;paint-order:stroke markers fill"
       d="m 2.3452827,16.374674 1.0490284,4.189853 0.033553,6.442142 -1.0362924,-3.864919 z"
       sodipodi:nodetypes="ccccc" /><path
       id="path8753"
       style="fill:#28220b;stroke-width:0.264583;stroke-linecap:round;stroke-linejoin:round;paint-order:stroke markers fill"
       d="m 14.549633,16.374798 -1.049029,4.189853 -0.03355,6.442142 1.036293,-3.864919 z"
       sodipodi:nodetypes="ccccc" /><path
       id="rect8755"
       style="fill:#28220b;stroke-width:0.264583;stroke-linecap:round;stroke-linejoin:round;paint-order:stroke markers fill"
       d="M 5.9523346,5.306156 C 6.2333062,4.2864048 10.860476,4.2863916 10.974099,5.3948302 L 10.192622,5.683463 c -1.1241677,-0.8544759 -2.3062624,-0.6132347 -3.5080231,0 z"
       sodipodi:nodetypes="ccccc" /><path
       id="rect10270"
       style="fill:#28220b;fill-opacity:1;stroke-width:0.264583;stroke-linecap:round;stroke-linejoin:round;paint-order:stroke markers fill"
       d="m 5.4962718,31.016674 5.9423302,-0.0362 c -0.194406,0.529662 -0.604799,0.917745 -1.171897,0.90378 l -3.6008178,0.0029 c -0.5869709,0.01272 -0.9045821,-0.47381 -1.1696154,-0.87048 z"
       sodipodi:nodetypes="ccccc" /><path
       id="rect11155"
       style="fill:#483e37;stroke-width:0.264583;stroke-linecap:round;stroke-linejoin:round;paint-order:stroke markers fill"
       d="m 4.4593277,24.873707 8.0201073,-0.03188 c -0.718817,2.012046 -1.043883,4.063675 -1.053628,6.147005 L 5.4988644,31.01796 C 5.4363977,28.913802 5.1071522,26.837168 4.4593277,24.873707 Z"
       sodipodi:nodetypes="ccccc" /><path
       id="path11319"
       style="fill:#333333;fill-opacity:0.974146;stroke-width:0.264583;stroke-linecap:round;stroke-linejoin:round;paint-order:stroke markers fill;filter:url(#filter11321)"
       d="M 3.0441854,2.8101882 C 2.5780025,3.2642703 2.2794826,3.5772618 2.1231296,4.5076224 L 1.4484866,4.3010367 C 1.6765803,3.1798 2.2331196,2.649781 3.0441854,2.8101882 Z"
       sodipodi:nodetypes="cccc" /><path
       id="rect11262"
       style="fill:#b3b3b3;fill-opacity:0.974146;stroke-width:0.264583;stroke-linecap:round;stroke-linejoin:round;paint-order:stroke markers fill"
       d="M 3.1570184,2.8753497 C 2.6908355,3.3294318 2.3923156,3.6424233 2.2359626,4.5727839 L 1.5613196,4.3661982 C 1.7894133,3.2449615 2.3459526,2.7149425 3.1570184,2.8753497 Z"
       sodipodi:nodetypes="cccc" /><path
       id="path12051"
       style="fill:#333333;fill-opacity:0.974146;stroke-width:0.264583;stroke-linecap:round;stroke-linejoin:round;paint-order:stroke markers fill;filter:url(#filter11321)"
       d="M 3.0441854,2.8101882 C 2.5780025,3.2642703 2.2794826,3.5772618 2.1231296,4.5076224 L 1.4484866,4.3010367 C 1.6765803,3.1798 2.2331196,2.649781 3.0441854,2.8101882 Z"
       sodipodi:nodetypes="cccc"
       transform="matrix(-1,0,0,1,16.764279,0)" /><path
       id="path11317"
       style="fill:#b3b3b3;fill-opacity:0.974146;stroke-width:0.264583;stroke-linecap:round;stroke-linejoin:round;paint-order:stroke markers fill"
       d="m 13.583482,2.8753497 c 0.466183,0.4540821 0.764703,0.7670736 0.921056,1.6974342 L 15.179181,4.3661982 C 14.951087,3.2449615 14.394548,2.7149425 13.583482,2.8753497 Z"
       sodipodi:nodetypes="cccc" /></g><g
     inkscape:groupmode="layer"
     id="layer1"
     inkscape:label="Headlights"><g
       id="g3072"><path
         id="rect386"
         style="fill:#ffffff;stroke-width:0.165;stroke-linecap:round;stroke-linejoin:round;paint-order:stroke fill markers;fill-opacity:0.2;filter:url(#filter1849)"
         d="M 5.4442013,78.170402 C 5.2176066,43.015241 27.748359,3.9138497 90.681751,3.6177695 98.993938,3.3018284 76.061243,75.344051 68.75099,111.20719 68.244381,111.70294 67.899386,112.2559 67.847752,112.9127 40.270759,101.4951 5.3816492,87.890856 5.4442013,78.170402 Z"
         sodipodi:nodetypes="ccccc" /><path
         id="path1840"
         style="fill:#ffffff;fill-opacity:0.2;stroke-width:0.165;stroke-linecap:round;stroke-linejoin:round;paint-order:stroke fill markers;filter:url(#filter1863)"
         d="m 89.352244,11.667762 c -8.592609,0.286627 -17.153264,1.294487 -25.465506,3.460988 -7.723303,1.999298 -15.312136,5.10368 -22.071603,9.335887 -7.185993,4.489942 -13.600044,10.463971 -18.43192,17.497223 -5.298742,7.622346 -8.856604,16.394494 -10.594275,25.45992 -0.947924,4.93268 -1.454164,9.952459 -1.370175,14.985365 0.33144,1.687075 1.845199,2.750476 3.000397,3.884411 4.172852,3.539845 9.03062,6.007056 13.815626,8.579601 10.673262,5.436793 21.824106,9.964643 32.889504,14.605313 2.258276,0.93616 4.516551,1.87232 6.774827,2.80848 5.041198,-23.01657 11.59146,-45.665592 17.168507,-68.545132 2.210275,-9.041857 4.356071,-18.104334 5.638675,-27.349429 0.193171,-1.578271 0.311105,-3.171338 0.23774,-4.76169 -0.530599,0.01302 -1.061198,0.02604 -1.591797,0.03906 z" /><path
         id="path1853"
         style="fill:#ffffff;fill-opacity:0.2;stroke-width:0.165;stroke-linecap:round;stroke-linejoin:round;paint-order:stroke fill markers;filter:url(#filter1879)"
         d="M 87.561976,22.081667 C 75.241314,22.960972 62.87001,25.549486 51.903773,31.241823 46.817161,33.894002 42.05218,37.15853 37.888678,41.05392 27.569468,50.580859 21.248685,63.982916 19.360125,77.813865 c -0.429533,3.225604 -0.736812,6.481068 -0.624321,9.738505 0.831562,0.97677 1.899565,1.734233 2.888187,2.547521 4.508511,3.418983 9.610724,5.87814 14.65445,8.43038 10.313019,5.081039 21.009192,9.389369 31.625332,13.842409 6.340144,-27.922335 14.751157,-55.333224 20.436054,-83.405572 0.446639,-2.320764 0.834399,-4.654452 1.104961,-7.002629 -0.627604,0.03906 -1.255208,0.07813 -1.882812,0.117188 z" /><path
         id="path1867"
         style="fill:#ffffff;fill-opacity:0.2;stroke-width:0.165;stroke-linecap:round;stroke-linejoin:round;paint-order:stroke fill markers;filter:url(#filter1897)"
         d="m 85.525679,35.232129 c -11.726678,1.466894 -23.410819,4.728906 -33.294018,11.37872 -5.725149,3.835775 -10.862381,8.751635 -14.746997,14.525577 -4.33637,6.537073 -7.360126,14.129447 -8.781805,21.91216 -0.583029,3.135907 -0.918679,6.280852 -1.013117,9.414011 4.615929,3.792988 10.144081,6.334566 15.480001,9.005173 8.089546,3.91814 16.368804,7.42388 24.660624,10.88741 5.268659,-22.260648 11.635026,-44.240374 16.631968,-66.564618 0.807853,-3.569253 1.561077,-7.123807 2.284047,-10.702965 -0.406901,0.04818 -0.813802,0.09635 -1.220703,0.144532 z" /><path
         id="path1885"
         style="fill:#ffffff;fill-opacity:0.2;stroke-width:0.165;stroke-linecap:round;stroke-linejoin:round;paint-order:stroke fill markers;filter:url(#filter1901)"
         d="m 82.800887,48.786679 c -9.378699,1.888981 -18.546216,5.217025 -26.220704,10.984375 -6.95461,5.20816 -12.557653,12.266833 -15.757871,20.366096 -2.228215,5.399443 -3.561501,11.179226 -4.0683,16.963983 6.243613,4.116127 13.135892,7.103147 19.890625,10.267587 3.695252,1.67318 7.426234,3.26378 11.15625,4.85742 5.205777,-21.219259 11.14244,-42.248085 15.804687,-63.591804 -0.268229,0.05078 -0.536458,0.101562 -0.804687,0.152343 z" /><path
         id="path2683"
         style="mix-blend-mode:normal;fill:#ffffff;fill-opacity:1;stroke-width:0.165;stroke-linecap:round;stroke-linejoin:round;paint-order:stroke fill markers;filter:url(#filter3050)"
         d="m 71.657069,102.82156 c -1.494303,4.71206 -1.785122,5.13101 -3.406407,9.35042 -8.642368,22.49184 -5.286619,9.58156 -8.62792,5.0121 C 56.281437,112.61461 43.54202,84.912919 48.931326,80.972128 54.320632,77.031338 83.210898,66.388212 71.657069,102.82156 Z"
         sodipodi:nodetypes="sssss" /></g><g
       id="g3100"
       transform="matrix(-1,0,0,1,147.12643,0)"><path
         id="path3088"
         style="fill:#ffffff;fill-opacity:0.2;stroke-width:0.165;stroke-linecap:round;stroke-linejoin:round;paint-order:stroke fill markers;filter:url(#filter1849)"
         d="M 5.4442013,78.170402 C 5.2176066,43.015241 27.748359,3.9138497 90.681751,3.6177695 98.993938,3.3018284 76.061243,75.344051 68.75099,111.20719 68.244381,111.70294 67.899386,112.2559 67.847752,112.9127 40.270759,101.4951 5.3816492,87.890856 5.4442013,78.170402 Z"
         sodipodi:nodetypes="ccccc" /><path
         id="path3090"
         style="fill:#ffffff;fill-opacity:0.2;stroke-width:0.165;stroke-linecap:round;stroke-linejoin:round;paint-order:stroke fill markers;filter:url(#filter1863)"
         d="m 89.352244,11.667762 c -8.592609,0.286627 -17.153264,1.294487 -25.465506,3.460988 -7.723303,1.999298 -15.312136,5.10368 -22.071603,9.335887 -7.185993,4.489942 -13.600044,10.463971 -18.43192,17.497223 -5.298742,7.622346 -8.856604,16.394494 -10.594275,25.45992 -0.947924,4.93268 -1.454164,9.952459 -1.370175,14.985365 0.33144,1.687075 1.845199,2.750476 3.000397,3.884411 4.172852,3.539845 9.03062,6.007056 13.815626,8.579601 10.673262,5.436793 21.824106,9.964643 32.889504,14.605313 2.258276,0.93616 4.516551,1.87232 6.774827,2.80848 5.041198,-23.01657 11.59146,-45.665592 17.168507,-68.545132 2.210275,-9.041857 4.356071,-18.104334 5.638675,-27.349429 0.193171,-1.578271 0.311105,-3.171338 0.23774,-4.76169 -0.530599,0.01302 -1.061198,0.02604 -1.591797,0.03906 z" /><path
         id="path3092"
         style="fill:#ffffff;fill-opacity:0.2;stroke-width:0.165;stroke-linecap:round;stroke-linejoin:round;paint-order:stroke fill markers;filter:url(#filter1879)"
         d="M 87.561976,22.081667 C 75.241314,22.960972 62.87001,25.549486 51.903773,31.241823 46.817161,33.894002 42.05218,37.15853 37.888678,41.05392 27.569468,50.580859 21.248685,63.982916 19.360125,77.813865 c -0.429533,3.225604 -0.736812,6.481068 -0.624321,9.738505 0.831562,0.97677 1.899565,1.734233 2.888187,2.547521 4.508511,3.418983 9.610724,5.87814 14.65445,8.43038 10.313019,5.081039 21.009192,9.389369 31.625332,13.842409 6.340144,-27.922335 14.751157,-55.333224 20.436054,-83.405572 0.446639,-2.320764 0.834399,-4.654452 1.104961,-7.002629 -0.627604,0.03906 -1.255208,0.07813 -1.882812,0.117188 z" /><path
         id="path3094"
         style="fill:#ffffff;fill-opacity:0.2;stroke-width:0.165;stroke-linecap:round;stroke-linejoin:round;paint-order:stroke fill markers;filter:url(#filter1897)"
         d="m 85.525679,35.232129 c -11.726678,1.466894 -23.410819,4.728906 -33.294018,11.37872 -5.725149,3.835775 -10.862381,8.751635 -14.746997,14.525577 -4.33637,6.537073 -7.360126,14.129447 -8.781805,21.91216 -0.583029,3.135907 -0.918679,6.280852 -1.013117,9.414011 4.615929,3.792988 10.144081,6.334566 15.480001,9.005173 8.089546,3.91814 16.368804,7.42388 24.660624,10.88741 5.268659,-22.260648 11.635026,-44.240374 16.631968,-66.564618 0.807853,-3.569253 1.561077,-7.123807 2.284047,-10.702965 -0.406901,0.04818 -0.813802,0.09635 -1.220703,0.144532 z" /><path
         id="path3096"
         style="fill:#ffffff;fill-opacity:0.2;stroke-width:0.165;stroke-linecap:round;stroke-linejoin:round;paint-order:stroke fill markers;filter:url(#filter1901)"
         d="m 82.800887,48.786679 c -9.378699,1.888981 -18.546216,5.217025 -26.220704,10.984375 -6.95461,5.20816 -12.557653,12.266833 -15.757871,20.366096 -2.228215,5.399443 -3.561501,11.179226 -4.0683,16.963983 6.243613,4.116127 13.135892,7.103147 19.890625,10.267587 3.695252,1.67318 7.426234,3.26378 11.15625,4.85742 5.205777,-21.219259 11.14244,-42.248085 15.804687,-63.591804 -0.268229,0.05078 -0.536458,0.101562 -0.804687,0.152343 z" /><path
         id="path3098"
         style="mix-blend-mode:normal;fill:#ffffff;fill-opacity:1;stroke-width:0.165;stroke-linecap:round;stroke-linejoin:round;paint-order:stroke fill markers;filter:url(#filter3050)"
         d="m 71.657069,102.82156 c -1.494303,4.71206 -1.785122,5.13101 -3.406407,9.35042 -8.642368,22.49184 -5.286619,9.58156 -8.62792,5.0121 C 56.281437,112.61461 43.54202,84.912919 48.931326,80.972128 54.320632,77.031338 83.210898,66.388212 71.657069,102.82156 Z"
         sodipodi:nodetypes="sssss" /></g></g></svg>
